<svg xmlns="http://www.w3.org/2000/svg" enable-background="new 0 0 32 32" viewBox="0 0 32 32">
  <path d="M29.25,2H5.2143555v7H2.75v2h2.4643555v4H2.75v2h2.4643555v4H2.75v2h2.4643555v7H29.25V2z M27.25,28H7.2143555V4H27.25V28z" fill="#ffffff"/>
  <path d="M23.4746094 16.1962891H10.9897461v8.9423828h12.4848633V16.1962891zM21.4746094 23.1386719h-8.4848633v-4.9423828h8.4848633V23.1386719zM17.2319336 15.0263672c2.2514648 0 4.0830078-1.8320312 4.0830078-4.0830078s-1.831543-4.0820312-4.0830078-4.0820312c-2.2509766 0-4.0825195 1.8310547-4.0825195 4.0820312S14.980957 15.0263672 17.2319336 15.0263672zM17.2319336 8.8613281c1.1484375 0 2.0830078.9335938 2.0830078 2.0820312s-.9345703 2.0830078-2.0830078 2.0830078-2.0825195-.9345703-2.0825195-2.0830078S16.0834961 8.8613281 17.2319336 8.8613281z" fill="#ffffff"/>
</svg>