<svg width="23" height="26" viewBox="0 0 23 26" fill="none" xmlns="http://www.w3.org/2000/svg">
<path d="M2.86813 25.8518C2.21438 25.8518 1.66104 25.6275 1.2081 25.1788C0.755157 24.73 0.528687 24.1819 0.528687 23.5342V8.9387C0.528687 8.29105 0.755157 7.74286 1.2081 7.29415C1.66104 6.84543 2.21438 6.62107 2.86813 6.62107H5.70516C5.70516 5.02021 6.27177 3.65846 7.40498 2.53581C8.5382 1.41316 9.91277 0.851837 11.5287 0.851837C13.1446 0.851837 14.5192 1.41316 15.6524 2.53581C16.7856 3.65846 17.3522 5.02021 17.3522 6.62107H20.1892C20.843 6.62107 21.3963 6.84543 21.8493 7.29415C22.3022 7.74286 22.5287 8.29105 22.5287 8.9387V23.5342C22.5287 24.1819 22.3022 24.73 21.8493 25.1788C21.3963 25.6275 20.843 25.8518 20.1892 25.8518H2.86813ZM7.64633 6.62107H15.411C15.411 5.55269 15.0336 4.64457 14.2787 3.89671C13.5238 3.14885 12.6071 2.77491 11.5287 2.77491C10.4503 2.77491 9.53359 3.14885 8.77869 3.89671C8.02379 4.64457 7.64633 5.55269 7.64633 6.62107ZM11.5086 15.5954C12.9721 15.5954 14.2866 15.1048 15.4521 14.1236C16.6177 13.1422 17.1938 12.0287 17.1804 10.7829C17.1804 10.5182 17.0908 10.2925 16.9116 10.106C16.7325 9.91947 16.5053 9.8262 16.2299 9.8262C16.0026 9.8262 15.7993 9.90387 15.62 10.0592C15.4408 10.2146 15.3139 10.4311 15.2392 10.7089C15.0518 11.5783 14.6047 12.2897 13.8979 12.8429C13.1911 13.3959 12.3947 13.6724 11.5086 13.6724C10.6228 13.6724 9.82315 13.3959 9.10966 12.8429C8.39617 12.2897 7.95239 11.5783 7.77833 10.7089C7.70371 10.4179 7.58335 10.198 7.41728 10.0493C7.25141 9.90056 7.05481 9.8262 6.82748 9.8262C6.55205 9.8262 6.32148 9.91947 6.13578 10.106C5.94985 10.2925 5.85689 10.5182 5.85689 10.7829C5.85689 12.0287 6.4331 13.1422 7.58551 14.1236C8.73771 15.1048 10.0454 15.5954 11.5086 15.5954Z" fill="white"/>
</svg>
