<svg width="181" height="44" viewBox="0 0 181 44" fill="none" xmlns="http://www.w3.org/2000/svg">
<path d="M39.4424 44H11.0459C10.3193 44 9.53223 43.9193 8.68457 43.7578C7.8571 43.5762 7.02962 43.3037 6.20215 42.9404C5.39486 42.5771 4.61784 42.113 3.87109 41.5479C3.12435 40.9626 2.45833 40.2663 1.87305 39.459C1.30794 38.6315 0.853841 37.6829 0.510742 36.6133C0.167643 35.5234 -0.00390625 34.3024 -0.00390625 32.9502V11.6377C-0.00390625 10.9111 0.0768229 10.1341 0.238281 9.30664C0.419922 8.45898 0.692383 7.63151 1.05566 6.82422C1.41895 5.99674 1.89323 5.20964 2.47852 4.46289C3.0638 3.71615 3.76009 3.06022 4.56738 2.49512C5.39486 1.90983 6.34342 1.44564 7.41309 1.10254C8.48275 0.75944 9.69368 0.587891 11.0459 0.587891H39.4424V8.45898H11.0459C10.0166 8.45898 9.22949 8.73145 8.68457 9.27637C8.13965 9.82129 7.86719 10.6286 7.86719 11.6982V32.9502C7.86719 33.9593 8.13965 34.7464 8.68457 35.3115C9.24967 35.8564 10.0368 36.1289 11.0459 36.1289H39.4424V44ZM88.4248 31.2246C88.4248 32.7786 88.223 34.1813 87.8193 35.4326C87.4359 36.6637 86.9212 37.7536 86.2754 38.7021C85.6296 39.6507 84.8727 40.458 84.0049 41.124C83.137 41.79 82.2389 42.335 81.3105 42.7588C80.3822 43.1826 79.4336 43.4954 78.4648 43.6973C77.5163 43.8991 76.6182 44 75.7705 44H45.4062V36.1289H75.7705C77.2842 36.1289 78.4548 35.6849 79.2822 34.7969C80.1299 33.9089 80.5537 32.7181 80.5537 31.2246C80.5537 30.498 80.4427 29.832 80.2207 29.2266C79.9987 28.6211 79.6758 28.0964 79.252 27.6523C78.8483 27.2083 78.3438 26.8652 77.7383 26.623C77.153 26.3809 76.4971 26.2598 75.7705 26.2598H57.667C56.3955 26.2598 55.0231 26.0378 53.5498 25.5938C52.0765 25.1296 50.7041 24.3929 49.4326 23.3838C48.1813 22.3747 47.1318 21.0527 46.2842 19.418C45.4567 17.7832 45.043 15.7852 45.043 13.4238C45.043 11.0625 45.4567 9.07454 46.2842 7.45996C47.1318 5.8252 48.1813 4.50326 49.4326 3.49414C50.7041 2.46484 52.0765 1.72819 53.5498 1.28418C55.0231 0.819987 56.3955 0.587891 57.667 0.587891H84.459V8.45898H57.667C56.1735 8.45898 55.0029 8.91309 54.1553 9.82129C53.3278 10.7295 52.9141 11.9303 52.9141 13.4238C52.9141 14.9375 53.3278 16.1383 54.1553 17.0264C55.0029 17.8942 56.1735 18.3281 57.667 18.3281H75.7705H75.8311C76.6787 18.3483 77.5768 18.4694 78.5254 18.6914C79.474 18.8932 80.4124 19.2161 81.3408 19.6602C82.2894 20.1042 83.1875 20.6693 84.0352 21.3555C84.8828 22.0215 85.6296 22.8288 86.2754 23.7773C86.9414 24.7259 87.4661 25.8158 87.8496 27.0469C88.2331 28.278 88.4248 29.6706 88.4248 31.2246ZM133.714 8.45898H116.367V44H108.496V8.45898H91.1191V0.587891H133.714V8.45898ZM180.607 44H172.736V33.3438H145.066V44H137.195V22.2939C137.195 19.1253 137.74 16.209 138.83 13.5449C139.92 10.8809 141.434 8.59017 143.371 6.67285C145.309 4.75553 147.599 3.26204 150.243 2.19238C152.887 1.12272 155.773 0.587891 158.901 0.587891H176.642C177.187 0.587891 177.701 0.688802 178.186 0.890625C178.67 1.09245 179.094 1.375 179.457 1.73828C179.82 2.10156 180.103 2.52539 180.305 3.00977C180.507 3.49414 180.607 4.00879 180.607 4.55371V44ZM145.066 25.4727H172.736V8.45898H158.901C158.659 8.45898 158.145 8.49935 157.357 8.58008C156.59 8.64062 155.692 8.81217 154.663 9.09473C153.654 9.37728 152.584 9.8112 151.454 10.3965C150.324 10.9818 149.285 11.7891 148.336 12.8184C147.387 13.8477 146.6 15.1393 145.975 16.6934C145.369 18.2272 145.066 20.0941 145.066 22.2939V25.4727Z" fill="white"/>
</svg>
